<?xml version="1.0" encoding="UTF-8"?>
<svg width="200" height="200" viewBox="0 0 200 200" xmlns="http://www.w3.org/2000/svg">
  <defs>
    <linearGradient id="gradTraining" x1="0%" y1="0%" x2="100%" y2="100%">
      <stop offset="0%" style="stop-color:#1976D2;stop-opacity:1" />
      <stop offset="100%" style="stop-color:#64B5F6;stop-opacity:1" />
    </linearGradient>
  </defs>
  <rect x="25" y="25" width="150" height="150" rx="15" fill="url(#gradTraining)"/>
  
  <!-- Training imagery - brain with cogs/gears -->
  <circle cx="100" cy="100" r="55" fill="white" opacity="0.85"/>
  
  <!-- Brain outline -->
  <path d="M100,55 C125,55 135,75 135,90 C135,105 125,120 110,125 C110,135 100,145 90,145 C80,145 70,135 70,125 C55,120 45,105 45,90 C45,75 55,55 100,55 Z" 
        fill="none" stroke="#1976D2" stroke-width="3"/>
  
  <!-- Brain folds -->
  <path d="M75,70 Q90,60 110,72" stroke="#1976D2" stroke-width="2" fill="none"/>
  <path d="M75,90 Q90,80 105,85" stroke="#1976D2" stroke-width="2" fill="none"/>
  <path d="M95,90 Q100,100 115,95" stroke="#1976D2" stroke-width="2" fill="none"/>
  <path d="M80,110 Q95,100 110,110" stroke="#1976D2" stroke-width="2" fill="none"/>
  <path d="M80,125 Q95,115 110,125" stroke="#1976D2" stroke-width="2" fill="none"/>
  
  <!-- Cogs/gears to represent learning -->
  <circle cx="65" cy="65" r="12" fill="#1976D2" opacity="0.8"/>
  <circle cx="65" cy="65" r="6" fill="white"/>
  <circle cx="135" cy="75" r="10" fill="#1976D2" opacity="0.8"/>
  <circle cx="135" cy="75" r="5" fill="white"/>
  <circle cx="125" cy="125" r="8" fill="#1976D2" opacity="0.8"/>
  <circle cx="125" cy="125" r="4" fill="white"/>
  
  <!-- Gear teeth -->
  <line x1="65" y1="49" x2="65" y2="43" stroke="#1976D2" stroke-width="3"/>
  <line x1="49" y1="65" x2="43" y2="65" stroke="#1976D2" stroke-width="3"/>
  <line x1="65" y1="81" x2="65" y2="87" stroke="#1976D2" stroke-width="3"/>
  <line x1="81" y1="65" x2="87" y2="65" stroke="#1976D2" stroke-width="3"/>
  
  <line x1="135" y1="61" x2="135" y2="55" stroke="#1976D2" stroke-width="2"/>
  <line x1="121" y1="75" x2="115" y2="75" stroke="#1976D2" stroke-width="2"/>
  <line x1="135" y1="89" x2="135" y2="95" stroke="#1976D2" stroke-width="2"/>
  <line x1="149" y1="75" x2="155" y2="75" stroke="#1976D2" stroke-width="2"/>
  
  <line x1="125" y1="113" x2="125" y2="109" stroke="#1976D2" stroke-width="2"/>
  <line x1="113" y1="125" x2="109" y2="125" stroke="#1976D2" stroke-width="2"/>
  <line x1="125" y1="137" x2="125" y2="141" stroke="#1976D2" stroke-width="2"/>
  <line x1="137" y1="125" x2="141" y2="125" stroke="#1976D2" stroke-width="2"/>
</svg>